0
SECTION
2
HEADER
9
$INSUNITS
70
4
0
ENDSEC
0
SECTION
2
TABLES
0
TABLE
2
LTYPE
0
LTYPE
72
65
70
0
2
CONTINUOUS
3
______
73
0
40
0
0
LTYPE
72
65
70
0
2
DASHED
3
_ _ _ 
73
2
40
7.5
49
5
49
-2.5
0
LTYPE
72
65
70
0
2
DOTTED
3
. . . 
73
2
40
1.5
49
0.5
49
-1
0
ENDTAB
0
TABLE
2
LAYER
0
ENDTAB
0
ENDSEC
0
SECTION
2
ENTITIES
0
LINE
8
0
6
CONTINUOUS
10
36.896338
20
-78.6155654
11
52.2454931
21
-76.4583823
0
LINE
8
0
6
CONTINUOUS
10
53.3749343
20
-77.3094773
11
57.0491041
21
-103.4525543
0
ARC
8
0
6
CONTINUOUS
10
58.5345062
20
-103.2437947
40
1.5
50
187.9999981
51
278.0000003
0
LINE
8
0
6
CONTINUOUS
10
58.7432658
20
-104.7291968
11
78.5486272
21
-101.9457347
0
ARC
8
0
6
CONTINUOUS
10
78.3398675
20
-100.4603326
40
1.5
50
278.0000062
51
367.9999948
0
LINE
8
0
6
CONTINUOUS
10
79.8252696
20
-100.251573
11
79.290809
21
-96.4486881
0
LINE
8
0
6
CONTINUOUS
10
80.2113206
20
-95.3119509
11
95.3498834
21
-94.2533595
0
ARC
8
0
6
CONTINUOUS
10
95.2452487
20
-92.7570134
40
1.5
50
274.0000001
51
363.9999773
0
LINE
8
0
6
CONTINUOUS
10
96.7415948
20
-92.6523787
11
96.5922979
21
-90.5173342
0
LINE
8
0
6
CONTINUOUS
10
97.5898619
20
-89.4475777
11
108.2653917
21
-89.4475777
0
LINE
8
0
6
CONTINUOUS
10
109.2653917
20
-90.4475777
11
109.2653917
21
-91.3475777
0
ARC
8
0
6
CONTINUOUS
10
110.7653917
20
-91.3475777
40
1.5
50
180
51
270
0
LINE
8
0
6
CONTINUOUS
10
110.7653917
20
-92.8475777
11
115.4653917
21
-92.8475777
0
LINE
8
0
6
CONTINUOUS
10
116.4653917
20
-112.5975777
11
116.4653917
21
-93.8475777
0
ARC
8
0
6
CONTINUOUS
10
117.9653917
20
-112.5975777
40
1.5
50
180
51
270
0
LINE
8
0
6
CONTINUOUS
10
117.9653917
20
-114.0975777
11
136.5046077
21
-114.0975777
0
LINE
8
0
6
CONTINUOUS
10
136.7634267
20
-114.1316519
11
152.7532422
21
-118.4161099
0
LINE
8
0
6
CONTINUOUS
10
169.5658137
20
-127.9266947
11
152.9882402
21
-118.5124699
0
ARC
8
0
6
CONTINUOUS
10
170.3065392
20
-126.6223459
40
1.5
50
240.408232
51
329.9999999
0
LINE
8
0
6
CONTINUOUS
10
171.6055773
20
-127.3723459
11
181.1055773
21
-110.9178633
0
ARC
8
0
6
CONTINUOUS
10
179.8065392
20
-110.1678633
40
1.5
50
329.9999999
51
419.9999884
0
LINE
8
0
6
CONTINUOUS
10
180.5565392
20
-108.8688252
11
171.2653917
21
-103.5045787
0
LINE
8
0
6
CONTINUOUS
10
170.7653917
20
-102.6385533
11
170.7653917
21
-46.3975779
0
ARC
8
0
6
CONTINUOUS
10
169.2653917
20
-46.3975778
40
1.5
50
0
51
90
0
LINE
8
0
6
CONTINUOUS
10
169.2653917
20
-44.8975778
11
151.2653917
21
-44.8975778
0
LINE
8
0
6
CONTINUOUS
10
150.2653917
20
-43.8975778
11
150.2653917
21
-23.8975778
0
ARC
8
0
6
CONTINUOUS
10
148.7653917
20
-23.8975778
40
1.5
50
0
51
90
0
LINE
8
0
6
CONTINUOUS
10
148.7653917
20
-22.3975778
11
133.2653917
21
-22.3975778
0
LINE
8
0
6
CONTINUOUS
10
132.2653917
20
-21.3975778
11
132.2653917
21
-21.3475777
0
ARC
8
0
6
CONTINUOUS
10
130.7653917
20
-21.3475777
40
1.5
50
0
51
90
0
LINE
8
0
6
CONTINUOUS
10
130.7653917
20
-19.8475777
11
115.2653916
21
-19.8475777
0
LINE
8
0
6
CONTINUOUS
10
114.2653916
20
-18.8475777
11
114.2653916
21
-17.9475777
0
ARC
8
0
6
CONTINUOUS
10
112.7653916
20
-17.9475777
40
1.5
50
0
51
90
0
LINE
8
0
6
CONTINUOUS
10
112.7653916
20
-16.4475777
11
92.7653916
21
-16.4475777
0
ARC
8
0
6
CONTINUOUS
10
92.7653916
20
-17.9475777
40
1.5
50
90
51
180
0
LINE
8
0
6
CONTINUOUS
10
91.2653916
20
-20.4294086
11
91.2653916
21
-17.9475777
0
ARC
8
0
6
CONTINUOUS
10
90.3622954
20
-22.9275298
40
1.5
50
92.221428
51
93.9999731
0
LINE
8
0
6
CONTINUOUS
10
90.2576607
20
-21.4311837
11
70.3063797
21
-22.8263132
0
ARC
8
0
6
CONTINUOUS
10
70.4110144
20
-24.3226593
40
1.5
50
93.999996
51
184
0
LINE
8
0
6
CONTINUOUS
10
68.9146683
20
-24.427294
11
69.2911663
21
-29.8114645
0
ARC
8
0
6
CONTINUOUS
10
68.5977505
20
-31.1415677
40
1.5
50
62.465851
51
97.9999948
0
LINE
8
0
6
CONTINUOUS
10
68.3889909
20
-29.6561656
11
48.5836295
21
-32.4396277
0
ARC
8
0
6
CONTINUOUS
10
48.7923892
20
-33.9250298
40
1.5
50
98.0000062
51
187.9999948
0
LINE
8
0
6
CONTINUOUS
10
47.3069871
20
-34.1337894
11
50.0347799
21
-53.5430436
0
LINE
8
0
6
CONTINUOUS
10
49.1836849
20
-54.6724848
11
33.8345299
21
-56.8296679
0
ARC
8
0
6
CONTINUOUS
10
34.0432895
20
-58.31507
40
1.5
50
98.0000003
51
187.9999915
0
LINE
8
0
6
CONTINUOUS
10
32.5578874
20
-58.5238296
11
35.2021763
21
-77.3389229
0
ARC
8
0
6
CONTINUOUS
10
36.6875784
20
-77.1301633
40
1.5
50
187.9999948
51
278.0000003
0
ARC
8
0
6
CONTINUOUS
10
52.3846662
20
-77.4486504
40
1
50
7.9999997
51
97.9999997
0
ARC
8
0
6
CONTINUOUS
10
78.4094541
20
-100.9554666
40
1
50
277.9999997
51
278.0000062
0
ARC
8
0
6
CONTINUOUS
10
80.2810771
20
-96.309515
40
1
50
94.0000013
51
187.9999997
0
ARC
8
0
6
CONTINUOUS
10
97.5898619
20
-90.4475777
40
1
50
90
51
184.0000017
0
ARC
8
0
6
CONTINUOUS
10
108.2653917
20
-90.4475777
40
1
50
0
51
90
0
ARC
8
0
6
CONTINUOUS
10
115.4653917
20
-93.8475777
40
1
50
0
51
90
0
ARC
8
0
6
CONTINUOUS
10
136.5046077
20
-115.0975777
40
1
50
75.0000021
51
90
0
ARC
8
0
6
CONTINUOUS
10
152.4944232
20
-119.3820357
40
1
50
60.4082263
51
75.0000021
0
ARC
8
0
6
CONTINUOUS
10
171.7653917
20
-102.6385533
40
1
50
180
51
239.9999999
0
ARC
8
0
6
CONTINUOUS
10
151.2653917
20
-43.8975778
40
1
50
180
51
270
0
ARC
8
0
6
CONTINUOUS
10
133.2653917
20
-21.3975778
40
1
50
180
51
270
0
ARC
8
0
6
CONTINUOUS
10
115.2653916
20
-18.8475777
40
1
50
180
51
270
0
ARC
8
0
6
CONTINUOUS
10
90.2653916
20
-20.4294086
40
1
50
272.221428
51
0
0
ARC
8
0
6
CONTINUOUS
10
70.3761362
20
-23.8238773
40
1
50
93.999996
51
94.0000013
0
ARC
8
0
6
CONTINUOUS
10
48.7228026
20
-33.4298958
40
1
50
97.9999997
51
98.0000062
0
ARC
8
0
6
CONTINUOUS
10
48.2972552
20
-33.9946163
40
1
50
187.9999948
51
187.9999997
0
ARC
8
0
6
CONTINUOUS
10
49.0445118
20
-53.6822167
40
1
50
277.9999997
51
7.9999997
0
ARC
8
0
6
CONTINUOUS
10
36.1924444
20
-77.1997498
40
1
50
187.9999948
51
187.9999997
0
ENDSEC
0
EOF