0
SECTION
2
HEADER
9
$INSUNITS
70
4
0
ENDSEC
0
SECTION
2
TABLES
0
TABLE
2
LTYPE
0
LTYPE
72
65
70
0
2
CONTINUOUS
3
______
73
0
40
0
0
LTYPE
72
65
70
0
2
DASHED
3
_ _ _ 
73
2
40
7.5
49
5
49
-2.5
0
LTYPE
72
65
70
0
2
DOTTED
3
. . . 
73
2
40
1.5
49
0.5
49
-1
0
ENDTAB
0
TABLE
2
LAYER
0
ENDTAB
0
ENDSEC
0
SECTION
2
ENTITIES
0
LINE
8
0
6
CONTINUOUS
10
36.7014957
20
-77.2291901
11
53.437026
21
-74.8771646
0
LINE
8
0
6
CONTINUOUS
10
54.5664672
20
-75.7282596
11
58.4354794
21
-103.257712
0
ARC
8
0
6
CONTINUOUS
10
58.5345062
20
-103.2437947
40
0.1
50
187.9999981
51
278.0000003
0
LINE
8
0
6
CONTINUOUS
10
58.5484235
20
-103.3428215
11
78.3537848
21
-100.5593594
0
ARC
8
0
6
CONTINUOUS
10
78.3398675
20
-100.4603326
40
0.1
50
278.0000003
51
367.9999948
0
LINE
8
0
6
CONTINUOUS
10
78.4388943
20
-100.4464153
11
77.6954909
21
-95.156825
0
LINE
8
0
6
CONTINUOUS
10
78.6160025
20
-94.0200878
11
95.2522243
21
-92.8567698
0
ARC
8
0
6
CONTINUOUS
10
95.2452487
20
-92.7570134
40
0.1
50
274.0000001
51
363.9999773
0
LINE
8
0
6
CONTINUOUS
10
95.3450051
20
-92.7500378
11
95.0909817
21
-89.1173342
0
LINE
8
0
6
CONTINUOUS
10
96.0885458
20
-88.0475777
11
109.6653917
21
-88.0475777
0
LINE
8
0
6
CONTINUOUS
10
110.6653917
20
-89.0475777
11
110.6653917
21
-91.3475777
0
ARC
8
0
6
CONTINUOUS
10
110.7653917
20
-91.3475777
40
0.1
50
180
51
270
0
LINE
8
0
6
CONTINUOUS
10
110.7653917
20
-91.4475777
11
116.8653917
21
-91.4475777
0
LINE
8
0
6
CONTINUOUS
10
117.8653917
20
-112.5975777
11
117.8653917
21
-92.4475777
0
ARC
8
0
6
CONTINUOUS
10
117.9653917
20
-112.5975777
40
0.1
50
180
51
270
0
LINE
8
0
6
CONTINUOUS
10
117.9653917
20
-112.6975777
11
136.6889214
21
-112.6975777
0
LINE
8
0
6
CONTINUOUS
10
136.9477404
20
-112.7316519
11
153.2887234
21
-117.110205
0
LINE
8
0
6
CONTINUOUS
10
170.2571575
20
-126.7093025
11
153.5237214
21
-117.206565
0
ARC
8
0
6
CONTINUOUS
10
170.3065392
20
-126.6223459
40
0.1
50
240.408232
51
329.9999999
0
LINE
8
0
6
CONTINUOUS
10
170.3931417
20
-126.6723459
11
179.8931417
21
-110.2178633
0
ARC
8
0
6
CONTINUOUS
10
179.8065392
20
-110.1678633
40
0.1
50
329.9999999
51
419.9999884
0
LINE
8
0
6
CONTINUOUS
10
179.8565392
20
-110.0812608
11
169.8653917
21
-104.3128691
0
LINE
8
0
6
CONTINUOUS
10
169.3653917
20
-103.4468437
11
169.3653917
21
-46.3975778
0
ARC
8
0
6
CONTINUOUS
10
169.2653917
20
-46.3975778
40
0.1
50
0
51
90
0
LINE
8
0
6
CONTINUOUS
10
169.2653917
20
-46.2975778
11
149.8653917
21
-46.2975778
0
LINE
8
0
6
CONTINUOUS
10
148.8653917
20
-45.2975778
11
148.8653917
21
-23.8975778
0
ARC
8
0
6
CONTINUOUS
10
148.7653917
20
-23.8975778
40
0.1
50
0
51
90
0
LINE
8
0
6
CONTINUOUS
10
148.7653917
20
-23.7975778
11
131.8653917
21
-23.7975778
0
LINE
8
0
6
CONTINUOUS
10
130.8653917
20
-22.7975778
11
130.8653917
21
-21.3475777
0
ARC
8
0
6
CONTINUOUS
10
130.7653917
20
-21.3475777
40
0.1
50
0
51
90
0
LINE
8
0
6
CONTINUOUS
10
130.7653917
20
-21.2475777
11
113.8653916
21
-21.2475777
0
LINE
8
0
6
CONTINUOUS
10
112.8653916
20
-20.2475777
11
112.8653916
21
-17.9475777
0
ARC
8
0
6
CONTINUOUS
10
112.7653916
20
-17.9475777
40
0.1
50
0
51
90
0
LINE
8
0
6
CONTINUOUS
10
112.7653916
20
-17.8475777
11
92.7653916
21
-17.8475777
0
ARC
8
0
6
CONTINUOUS
10
92.7653916
20
-17.9475777
40
0.1
50
90
51
180
0
LINE
8
0
6
CONTINUOUS
10
92.6653916
20
-25.7935272
11
92.6653916
21
-17.9475777
0
LINE
8
0
6
CONTINUOUS
10
90.4620518
20
-22.9205542
11
90.6678275
21
-25.8632837
0
ARC
8
0
6
CONTINUOUS
10
90.3622954
20
-22.9275298
40
0.1
50
4.0000001
51
93.9999731
0
LINE
8
0
6
CONTINUOUS
10
90.3553198
20
-22.8277734
11
70.4040388
21
-24.2229029
0
ARC
8
0
6
CONTINUOUS
10
70.4110144
20
-24.3226593
40
0.1
50
93.9999731
51
184
0
LINE
8
0
6
CONTINUOUS
10
70.311258
20
-24.3296349
11
72.8561277
21
-60.7229664
0
LINE
8
0
6
CONTINUOUS
10
68.6967773
20
-31.1276504
11
72.8561277
21
-60.7229664
0
ARC
8
0
6
CONTINUOUS
10
68.5977505
20
-31.1415677
40
0.1
50
7.9999999
51
97.9999948
0
LINE
8
0
6
CONTINUOUS
10
68.5838332
20
-31.0425409
11
48.7784719
21
-33.826003
0
ARC
8
0
6
CONTINUOUS
10
48.7923892
20
-33.9250298
40
0.1
50
97.9999948
51
187.9999999
0
LINE
8
0
6
CONTINUOUS
10
48.6933624
20
-33.9389471
11
51.6159975
21
-54.7345765
0
LINE
8
0
6
CONTINUOUS
10
50.7649025
20
-55.8640177
11
34.0293722
21
-58.2160432
0
ARC
8
0
6
CONTINUOUS
10
34.0432895
20
-58.31507
40
0.1
50
98.0000003
51
187.9999915
0
LINE
8
0
6
CONTINUOUS
10
33.9442627
20
-58.3289873
11
36.5885516
21
-77.1440806
0
ARC
8
0
6
CONTINUOUS
10
36.6875784
20
-77.1301633
40
0.1
50
187.9999948
51
278.0000003
0
ARC
8
0
6
CONTINUOUS
10
53.5761991
20
-75.8674327
40
1
50
7.9999997
51
97.9999997
0
ARC
8
0
6
CONTINUOUS
10
78.685759
20
-95.0176519
40
1
50
94.0000013
51
187.9999997
0
ARC
8
0
6
CONTINUOUS
10
96.0885458
20
-89.0475777
40
1
50
90
51
184.0000013
0
ARC
8
0
6
CONTINUOUS
10
109.6653917
20
-89.0475777
40
1
50
0
51
90
0
ARC
8
0
6
CONTINUOUS
10
116.8653917
20
-92.4475777
40
1
50
0
51
90
0
ARC
8
0
6
CONTINUOUS
10
136.6889214
20
-113.6975777
40
1
50
75.0000021
51
90
0
ARC
8
0
6
CONTINUOUS
10
153.0299044
20
-118.0761308
40
1
50
60.4082263
51
75.0000021
0
ARC
8
0
6
CONTINUOUS
10
170.3653917
20
-103.4468437
40
1
50
180
51
239.9999999
0
ARC
8
0
6
CONTINUOUS
10
149.8653917
20
-45.2975778
40
1
50
180
51
270
0
ARC
8
0
6
CONTINUOUS
10
131.8653917
20
-22.7975778
40
1
50
180
51
270
0
ARC
8
0
6
CONTINUOUS
10
113.8653916
20
-20.2475777
40
1
50
180
51
270
0
ARC
8
0
6
CONTINUOUS
10
91.6653916
20
-25.7935272
40
1
50
184.0000013
51
0
0
ARC
8
0
6
CONTINUOUS
10
50.6257294
20
-54.8737496
40
1
50
277.9999997
51
7.9999997
0
ENDSEC
0
EOF