0
SECTION
2
HEADER
9
$INSUNITS
70
4
0
ENDSEC
0
SECTION
2
TABLES
0
TABLE
2
LTYPE
0
LTYPE
72
65
70
0
2
CONTINUOUS
3
______
73
0
40
0
0
LTYPE
72
65
70
0
2
DASHED
3
_ _ _ 
73
2
40
7.5
49
5
49
-2.5
0
LTYPE
72
65
70
0
2
DOTTED
3
. . . 
73
2
40
1.5
49
0.5
49
-1
0
ENDTAB
0
TABLE
2
LAYER
0
ENDTAB
0
ENDSEC
0
SECTION
2
ENTITIES
0
LINE
8
0
6
CONTINUOUS
10
36.6875784
20
-77.1301633
11
54.5124036
21
-74.6250474
0
LINE
8
0
6
CONTINUOUS
10
51.8681147
20
-55.8099541
11
34.0432895
21
-58.31507
0
LINE
8
0
6
CONTINUOUS
10
34.0432895
20
-58.31507
11
36.6875784
21
-77.1301633
0
LINE
8
0
6
CONTINUOUS
10
58.5345062
20
-103.2437947
11
78.3398675
21
-100.4603326
0
LINE
8
0
6
CONTINUOUS
10
78.3398675
20
-100.4603326
11
77.4322947
21
-94.0026165
0
LINE
8
0
6
CONTINUOUS
10
54.5124036
20
-74.6250474
11
58.5345062
21
-103.2437947
0
LINE
8
0
6
CONTINUOUS
10
68.5977505
20
-31.1415677
11
73.1556406
21
-63.5726411
0
LINE
8
0
6
CONTINUOUS
10
48.7923892
20
-33.9250298
11
51.8681147
21
-55.8099541
0
LINE
8
0
6
CONTINUOUS
10
68.5977505
20
-31.1415677
11
48.7923892
21
-33.9250298
0
LINE
8
0
6
CONTINUOUS
10
77.4322947
20
-94.0026165
11
95.2452487
21
-92.7570134
0
LINE
8
0
6
CONTINUOUS
10
95.2452487
20
-92.7570134
11
94.9089402
21
-87.9475777
0
LINE
8
0
6
CONTINUOUS
10
90.3622954
20
-22.9275298
11
92.7653916
21
-57.2934054
0
LINE
8
0
6
CONTINUOUS
10
72.7827346
20
-58.2398371
11
72.9222475
21
-60.2349651
0
LINE
8
0
6
CONTINUOUS
10
72.9222475
20
-60.2349651
11
73.1556406
21
-63.5726411
0
LINE
8
0
6
CONTINUOUS
10
70.4110144
20
-24.3226593
11
71.7363874
21
-43.2763762
0
LINE
8
0
6
CONTINUOUS
10
71.7363874
20
-43.2763762
11
72.7827346
21
-58.2398371
0
LINE
8
0
6
CONTINUOUS
10
90.3622954
20
-22.9275298
11
70.4110144
21
-24.3226593
0
LINE
8
0
6
CONTINUOUS
10
94.9089402
20
-87.9475777
11
110.7653917
21
-87.9475777
0
LINE
8
0
6
CONTINUOUS
10
92.7653916
20
-57.2934054
11
92.7653916
21
-17.9475777
0
LINE
8
0
6
CONTINUOUS
10
112.7653916
20
-21.3475777
11
112.7653916
21
-17.9475777
0
LINE
8
0
6
CONTINUOUS
10
112.7653916
20
-17.9475777
11
92.7653916
21
-17.9475777
0
LINE
8
0
6
CONTINUOUS
10
110.7653917
20
-91.3475777
11
117.9653917
21
-91.3475777
0
LINE
8
0
6
CONTINUOUS
10
110.7653917
20
-87.9475777
11
110.7653917
21
-91.3475777
0
LINE
8
0
6
CONTINUOUS
10
130.7653917
20
-23.8975778
11
130.7653917
21
-21.3475777
0
LINE
8
0
6
CONTINUOUS
10
130.7653917
20
-21.3475777
11
112.7653916
21
-21.3475777
0
LINE
8
0
6
CONTINUOUS
10
148.7653917
20
-46.3975778
11
148.7653917
21
-23.8975778
0
LINE
8
0
6
CONTINUOUS
10
148.7653917
20
-23.8975778
11
130.7653917
21
-23.8975778
0
LINE
8
0
6
CONTINUOUS
10
117.9653917
20
-112.5975777
11
136.8337391
21
-112.5975777
0
LINE
8
0
6
CONTINUOUS
10
117.9653917
20
-112.5975777
11
117.9653917
21
-91.3475777
0
LINE
8
0
6
CONTINUOUS
10
136.8337391
20
-112.5975777
11
153.4506395
21
-117.0500628
0
LINE
8
0
6
CONTINUOUS
10
170.3065392
20
-126.6223459
11
179.8065392
21
-110.1678633
0
LINE
8
0
6
CONTINUOUS
10
179.8065392
20
-110.1678633
11
169.2653917
21
-104.0819289
0
LINE
8
0
6
CONTINUOUS
10
170.3065392
20
-126.6223459
11
153.4506395
21
-117.0500628
0
LINE
8
0
6
CONTINUOUS
10
169.2653917
20
-104.0819289
11
169.2653917
21
-46.3975778
0
LINE
8
0
6
CONTINUOUS
10
169.2653917
20
-46.3975778
11
148.7653917
21
-46.3975778
0
ENDSEC
0
EOF