0
SECTION
2
HEADER
9
$INSUNITS
70
4
0
ENDSEC
0
SECTION
2
TABLES
0
TABLE
2
LTYPE
0
LTYPE
72
65
70
0
2
CONTINUOUS
3
______
73
0
40
0
0
LTYPE
72
65
70
0
2
DASHED
3
_ _ _ 
73
2
40
7.5
49
5
49
-2.5
0
LTYPE
72
65
70
0
2
DOTTED
3
. . . 
73
2
40
1.5
49
0.5
49
-1
0
ENDTAB
0
TABLE
2
LAYER
0
ENDTAB
0
ENDSEC
0
SECTION
2
ENTITIES
0
LINE
8
0
6
CONTINUOUS
10
37.7514471
20
-75.7183618
11
55.0811383
21
-73.2828325
0
LINE
8
0
6
CONTINUOUS
10
55.0811383
20
-73.2828325
11
52.7847821
21
-56.9434094
0
LINE
8
0
6
CONTINUOUS
10
52.7847821
20
-56.9434094
11
35.4550909
21
-59.3789387
0
LINE
8
0
6
CONTINUOUS
10
35.4550909
20
-59.3789387
11
37.7514471
21
-75.7183618
0
LINE
8
0
6
CONTINUOUS
10
59.5983749
20
-101.8319932
11
76.9280661
21
-99.3964639
0
LINE
8
0
6
CONTINUOUS
10
76.9280661
20
-99.3964639
11
74.6317099
21
-83.0570408
0
LINE
8
0
6
CONTINUOUS
10
74.6317099
20
-83.0570408
11
57.3020187
21
-85.4925701
0
LINE
8
0
6
CONTINUOUS
10
57.3020187
20
-85.4925701
11
59.5983749
21
-101.8319932
0
LINE
8
0
6
CONTINUOUS
10
57.2324322
20
-84.997436
11
74.5621234
21
-82.5619067
0
LINE
8
0
6
CONTINUOUS
10
74.5621234
20
-82.5619067
11
72.2657672
21
-66.2224836
0
LINE
8
0
6
CONTINUOUS
10
72.2657672
20
-66.2224836
11
54.936076
21
-68.6580129
0
LINE
8
0
6
CONTINUOUS
10
54.936076
20
-68.6580129
11
57.2324322
21
-84.997436
0
LINE
8
0
6
CONTINUOUS
10
54.8664895
20
-68.1628788
11
72.1961807
21
-65.7273495
0
LINE
8
0
6
CONTINUOUS
10
72.1961807
20
-65.7273495
11
69.8998245
21
-49.3879264
0
LINE
8
0
6
CONTINUOUS
10
69.8998245
20
-49.3879264
11
52.5701333
21
-51.8234557
0
LINE
8
0
6
CONTINUOUS
10
52.5701333
20
-51.8234557
11
54.8664895
21
-68.1628788
0
LINE
8
0
6
CONTINUOUS
10
52.5005468
20
-51.3283216
11
69.830238
21
-48.8927923
0
LINE
8
0
6
CONTINUOUS
10
69.830238
20
-48.8927923
11
67.5338818
21
-32.5533692
0
LINE
8
0
6
CONTINUOUS
10
67.5338818
20
-32.5533692
11
50.2041906
21
-34.9888985
0
LINE
8
0
6
CONTINUOUS
10
50.2041906
20
-34.9888985
11
52.5005468
21
-51.3283216
0
LINE
8
0
6
CONTINUOUS
10
76.4537272
20
-92.8179923
11
93.911098
21
-91.597254
0
LINE
8
0
6
CONTINUOUS
10
93.911098
20
-91.597254
11
92.7601162
21
-75.1374471
0
LINE
8
0
6
CONTINUOUS
10
92.7601162
20
-75.1374471
11
75.3027454
21
-76.3581854
0
LINE
8
0
6
CONTINUOUS
10
75.3027454
20
-76.3581854
11
76.4537272
21
-92.8179923
0
LINE
8
0
6
CONTINUOUS
10
75.2678671
20
-75.8594034
11
92.7252379
21
-74.6386651
0
LINE
8
0
6
CONTINUOUS
10
92.7252379
20
-74.6386651
11
91.5742561
21
-58.1788582
0
LINE
8
0
6
CONTINUOUS
10
91.5742561
20
-58.1788582
11
74.1168853
21
-59.3995965
0
LINE
8
0
6
CONTINUOUS
10
74.1168853
20
-59.3995965
11
75.2678671
21
-75.8594034
0
LINE
8
0
6
CONTINUOUS
10
74.082007
20
-58.9008145
11
91.5393778
21
-57.6800762
0
LINE
8
0
6
CONTINUOUS
10
91.5393778
20
-57.6800762
11
90.388396
21
-41.2202693
0
LINE
8
0
6
CONTINUOUS
10
90.388396
20
-41.2202693
11
72.9310252
21
-42.4410076
0
LINE
8
0
6
CONTINUOUS
10
72.9310252
20
-42.4410076
11
74.082007
21
-58.9008145
0
LINE
8
0
6
CONTINUOUS
10
72.8961469
20
-41.9422256
11
90.3535177
21
-40.7214873
0
LINE
8
0
6
CONTINUOUS
10
90.3535177
20
-40.7214873
11
89.2025359
21
-24.2616804
0
LINE
8
0
6
CONTINUOUS
10
89.2025359
20
-24.2616804
11
71.7451651
21
-25.4824187
0
LINE
8
0
6
CONTINUOUS
10
71.7451651
20
-25.4824187
11
72.8961469
21
-41.9422256
0
LINE
8
0
6
CONTINUOUS
10
94.0153916
20
-86.6975777
11
111.5153916
21
-86.6975777
0
LINE
8
0
6
CONTINUOUS
10
111.5153916
20
-86.6975777
11
111.5153916
21
-70.1975777
0
LINE
8
0
6
CONTINUOUS
10
111.5153916
20
-70.1975777
11
94.0153916
21
-70.1975777
0
LINE
8
0
6
CONTINUOUS
10
94.0153916
20
-70.1975777
11
94.0153916
21
-86.6975777
0
LINE
8
0
6
CONTINUOUS
10
94.0153916
20
-69.6975777
11
111.5153916
21
-69.6975777
0
LINE
8
0
6
CONTINUOUS
10
111.5153916
20
-69.6975777
11
111.5153916
21
-53.1975777
0
LINE
8
0
6
CONTINUOUS
10
111.5153916
20
-53.1975777
11
94.0153916
21
-53.1975777
0
LINE
8
0
6
CONTINUOUS
10
94.0153916
20
-53.1975777
11
94.0153916
21
-69.6975777
0
LINE
8
0
6
CONTINUOUS
10
94.0153916
20
-52.6975777
11
111.5153916
21
-52.6975777
0
LINE
8
0
6
CONTINUOUS
10
111.5153916
20
-52.6975777
11
111.5153916
21
-36.1975777
0
LINE
8
0
6
CONTINUOUS
10
111.5153916
20
-36.1975777
11
94.0153916
21
-36.1975777
0
LINE
8
0
6
CONTINUOUS
10
94.0153916
20
-36.1975777
11
94.0153916
21
-52.6975777
0
LINE
8
0
6
CONTINUOUS
10
94.0153916
20
-35.6975777
11
111.5153916
21
-35.6975777
0
LINE
8
0
6
CONTINUOUS
10
111.5153916
20
-35.6975777
11
111.5153916
21
-19.1975777
0
LINE
8
0
6
CONTINUOUS
10
111.5153916
20
-19.1975777
11
94.0153916
21
-19.1975777
0
LINE
8
0
6
CONTINUOUS
10
94.0153916
20
-19.1975777
11
94.0153916
21
-35.6975777
0
LINE
8
0
6
CONTINUOUS
10
112.0153917
20
-90.0975777
11
129.5153917
21
-90.0975777
0
LINE
8
0
6
CONTINUOUS
10
129.5153917
20
-90.0975777
11
129.5153917
21
-73.5975777
0
LINE
8
0
6
CONTINUOUS
10
129.5153917
20
-73.5975777
11
112.0153917
21
-73.5975777
0
LINE
8
0
6
CONTINUOUS
10
112.0153917
20
-73.5975777
11
112.0153917
21
-90.0975777
0
LINE
8
0
6
CONTINUOUS
10
112.0153917
20
-73.0975777
11
129.5153917
21
-73.0975777
0
LINE
8
0
6
CONTINUOUS
10
129.5153917
20
-73.0975777
11
129.5153917
21
-56.5975777
0
LINE
8
0
6
CONTINUOUS
10
129.5153917
20
-56.5975777
11
112.0153917
21
-56.5975777
0
LINE
8
0
6
CONTINUOUS
10
112.0153917
20
-56.5975777
11
112.0153917
21
-73.0975777
0
LINE
8
0
6
CONTINUOUS
10
112.0153917
20
-56.0975777
11
129.5153917
21
-56.0975777
0
LINE
8
0
6
CONTINUOUS
10
129.5153917
20
-56.0975777
11
129.5153917
21
-39.5975777
0
LINE
8
0
6
CONTINUOUS
10
129.5153917
20
-39.5975777
11
112.0153917
21
-39.5975777
0
LINE
8
0
6
CONTINUOUS
10
112.0153917
20
-39.5975777
11
112.0153917
21
-56.0975777
0
LINE
8
0
6
CONTINUOUS
10
112.0153917
20
-39.0975777
11
129.5153917
21
-39.0975777
0
LINE
8
0
6
CONTINUOUS
10
129.5153917
20
-39.0975777
11
129.5153917
21
-22.5975777
0
LINE
8
0
6
CONTINUOUS
10
129.5153917
20
-22.5975777
11
112.0153917
21
-22.5975777
0
LINE
8
0
6
CONTINUOUS
10
112.0153917
20
-22.5975777
11
112.0153917
21
-39.0975777
0
LINE
8
0
6
CONTINUOUS
10
130.0153917
20
-92.6475778
11
147.5153917
21
-92.6475778
0
LINE
8
0
6
CONTINUOUS
10
147.5153917
20
-92.6475778
11
147.5153917
21
-76.1475778
0
LINE
8
0
6
CONTINUOUS
10
147.5153917
20
-76.1475778
11
130.0153917
21
-76.1475778
0
LINE
8
0
6
CONTINUOUS
10
130.0153917
20
-76.1475778
11
130.0153917
21
-92.6475778
0
LINE
8
0
6
CONTINUOUS
10
130.0153917
20
-75.6475778
11
147.5153917
21
-75.6475778
0
LINE
8
0
6
CONTINUOUS
10
147.5153917
20
-75.6475778
11
147.5153917
21
-59.1475778
0
LINE
8
0
6
CONTINUOUS
10
147.5153917
20
-59.1475778
11
130.0153917
21
-59.1475778
0
LINE
8
0
6
CONTINUOUS
10
130.0153917
20
-59.1475778
11
130.0153917
21
-75.6475778
0
LINE
8
0
6
CONTINUOUS
10
130.0153917
20
-58.6475778
11
147.5153917
21
-58.6475778
0
LINE
8
0
6
CONTINUOUS
10
147.5153917
20
-58.6475778
11
147.5153917
21
-42.1475778
0
LINE
8
0
6
CONTINUOUS
10
147.5153917
20
-42.1475778
11
130.0153917
21
-42.1475778
0
LINE
8
0
6
CONTINUOUS
10
130.0153917
20
-42.1475778
11
130.0153917
21
-58.6475778
0
LINE
8
0
6
CONTINUOUS
10
130.0153917
20
-41.6475778
11
147.5153917
21
-41.6475778
0
LINE
8
0
6
CONTINUOUS
10
147.5153917
20
-41.6475778
11
147.5153917
21
-25.1475778
0
LINE
8
0
6
CONTINUOUS
10
147.5153917
20
-25.1475778
11
130.0153917
21
-25.1475778
0
LINE
8
0
6
CONTINUOUS
10
130.0153917
20
-25.1475778
11
130.0153917
21
-41.6475778
0
LINE
8
0
6
CONTINUOUS
10
119.2153917
20
-111.3475777
11
136.7153917
21
-111.3475777
0
LINE
8
0
6
CONTINUOUS
10
136.7153917
20
-111.3475777
11
136.7153917
21
-94.8475777
0
LINE
8
0
6
CONTINUOUS
10
136.7153917
20
-94.8475777
11
119.2153917
21
-94.8475777
0
LINE
8
0
6
CONTINUOUS
10
119.2153917
20
-94.8475777
11
119.2153917
21
-111.3475777
0
LINE
8
0
6
CONTINUOUS
10
137.2715779
20
-111.420801
11
154.1752799
21
-115.9501343
0
LINE
8
0
6
CONTINUOUS
10
154.1752799
20
-115.9501343
11
158.4457941
21
-100.0123582
0
LINE
8
0
6
CONTINUOUS
10
158.4457941
20
-100.0123582
11
141.5420921
21
-95.4830249
0
LINE
8
0
6
CONTINUOUS
10
141.5420921
20
-95.4830249
11
137.2715779
21
-111.420801
0
LINE
8
0
6
CONTINUOUS
10
154.6935629
20
-116.1648142
11
169.8490075
21
-124.9148142
0
LINE
8
0
6
CONTINUOUS
10
169.8490075
20
-124.9148142
11
178.0990075
21
-110.625395
0
LINE
8
0
6
CONTINUOUS
10
178.0990075
20
-110.625395
11
162.9435629
21
-101.875395
0
LINE
8
0
6
CONTINUOUS
10
162.9435629
20
-101.875395
11
154.6935629
21
-116.1648142
0
ENDSEC
0
EOF