0
SECTION
2
HEADER
9
$INSUNITS
70
4
0
ENDSEC
0
SECTION
2
TABLES
0
TABLE
2
LTYPE
0
LTYPE
72
65
70
0
2
CONTINUOUS
3
______
73
0
40
0
0
LTYPE
72
65
70
0
2
DASHED
3
_ _ _ 
73
2
40
7.5
49
5
49
-2.5
0
LTYPE
72
65
70
0
2
DOTTED
3
. . . 
73
2
40
1.5
49
0.5
49
-1
0
ENDTAB
0
TABLE
2
LAYER
0
ENDTAB
0
ENDSEC
0
SECTION
2
ENTITIES
0
LINE
8
0
6
CONTINUOUS
10
117.9653917
20
-112.5975777
11
117.9653917
21
-88.8475777
0
LINE
8
0
6
CONTINUOUS
10
117.9653917
20
-88.8475777
11
147.7653917
21
-93.8975778
0
LINE
8
0
6
CONTINUOUS
10
147.7653917
20
-93.8975778
11
162.4860312
21
-100.1678633
0
LINE
8
0
6
CONTINUOUS
10
162.4860312
20
-100.1678633
11
179.8065392
21
-110.1678633
0
LINE
8
0
6
CONTINUOUS
10
179.8065392
20
-110.1678633
11
170.3065392
21
-126.6223459
0
LINE
8
0
6
CONTINUOUS
10
170.3065392
20
-126.6223459
11
152.9147812
21
-116.7457546
0
LINE
8
0
6
CONTINUOUS
10
152.9147812
20
-116.7457546
11
137.9653917
21
-112.5975777
0
LINE
8
0
6
CONTINUOUS
10
137.9653917
20
-112.5975777
11
117.9653917
21
-112.5975777
0
ENDSEC
0
EOF