0
SECTION
2
HEADER
9
$INSUNITS
70
4
0
ENDSEC
0
SECTION
2
TABLES
0
TABLE
2
LTYPE
0
LTYPE
72
65
70
0
2
CONTINUOUS
3
______
73
0
40
0
0
LTYPE
72
65
70
0
2
DASHED
3
_ _ _ 
73
2
40
7.5
49
5
49
-2.5
0
LTYPE
72
65
70
0
2
DOTTED
3
. . . 
73
2
40
1.5
49
0.5
49
-1
0
ENDTAB
0
TABLE
2
LAYER
0
ENDTAB
0
ENDSEC
0
SECTION
2
ENTITIES
0
LINE
8
0
6
CONTINUOUS
10
39.3955593
20
-74.1240297
11
53.0612587
21
-72.2034409
0
LINE
8
0
6
CONTINUOUS
10
53.0612587
20
-72.2034409
11
51.1406699
21
-58.5377415
0
LINE
8
0
6
CONTINUOUS
10
51.1406699
20
-58.5377415
11
37.4749705
21
-60.4583303
0
LINE
8
0
6
CONTINUOUS
10
37.4749705
20
-60.4583303
11
39.3955593
21
-74.1240297
0
LINE
8
0
6
CONTINUOUS
10
61.2424871
20
-100.2376611
11
74.9081865
21
-98.3170723
0
LINE
8
0
6
CONTINUOUS
10
74.9081865
20
-98.3170723
11
72.9875977
21
-84.6513729
0
LINE
8
0
6
CONTINUOUS
10
72.9875977
20
-84.6513729
11
59.3218983
21
-86.5719617
0
LINE
8
0
6
CONTINUOUS
10
59.3218983
20
-86.5719617
11
61.2424871
21
-100.2376611
0
LINE
8
0
6
CONTINUOUS
10
58.8765444
20
-83.4031039
11
72.5422438
21
-81.4825151
0
LINE
8
0
6
CONTINUOUS
10
72.5422438
20
-81.4825151
11
70.621655
21
-67.8168157
0
LINE
8
0
6
CONTINUOUS
10
70.621655
20
-67.8168157
11
56.9559556
21
-69.7374045
0
LINE
8
0
6
CONTINUOUS
10
56.9559556
20
-69.7374045
11
58.8765444
21
-83.4031039
0
LINE
8
0
6
CONTINUOUS
10
56.5106017
20
-66.5685467
11
70.1763011
21
-64.6479579
0
LINE
8
0
6
CONTINUOUS
10
70.1763011
20
-64.6479579
11
68.2557123
21
-50.9822585
0
LINE
8
0
6
CONTINUOUS
10
68.2557123
20
-50.9822585
11
54.5900129
21
-52.9028473
0
LINE
8
0
6
CONTINUOUS
10
54.5900129
20
-52.9028473
11
56.5106017
21
-66.5685467
0
LINE
8
0
6
CONTINUOUS
10
54.144659
20
-49.7339895
11
67.8103584
21
-47.8134007
0
LINE
8
0
6
CONTINUOUS
10
67.8103584
20
-47.8134007
11
65.8897696
21
-34.1477013
0
LINE
8
0
6
CONTINUOUS
10
65.8897696
20
-34.1477013
11
52.2240702
21
-36.0682901
0
LINE
8
0
6
CONTINUOUS
10
52.2240702
20
-36.0682901
11
54.144659
21
-49.7339895
0
LINE
8
0
6
CONTINUOUS
10
78.2050494
20
-91.3422313
11
91.9714333
21
-90.379592
0
LINE
8
0
6
CONTINUOUS
10
91.9714333
20
-90.379592
11
91.008794
21
-76.6132081
0
LINE
8
0
6
CONTINUOUS
10
91.008794
20
-76.6132081
11
77.2424101
21
-77.5758474
0
LINE
8
0
6
CONTINUOUS
10
77.2424101
20
-77.5758474
11
78.2050494
21
-91.3422313
0
LINE
8
0
6
CONTINUOUS
10
77.0191893
20
-74.3836424
11
90.7855732
21
-73.4210031
0
LINE
8
0
6
CONTINUOUS
10
90.7855732
20
-73.4210031
11
89.8229339
21
-59.6546192
0
LINE
8
0
6
CONTINUOUS
10
89.8229339
20
-59.6546192
11
76.05655
21
-60.6172585
0
LINE
8
0
6
CONTINUOUS
10
76.05655
20
-60.6172585
11
77.0191893
21
-74.3836424
0
LINE
8
0
6
CONTINUOUS
10
75.8333292
20
-57.4250535
11
89.5997131
21
-56.4624142
0
LINE
8
0
6
CONTINUOUS
10
89.5997131
20
-56.4624142
11
88.6370738
21
-42.6960303
0
LINE
8
0
6
CONTINUOUS
10
88.6370738
20
-42.6960303
11
74.8706899
21
-43.6586696
0
LINE
8
0
6
CONTINUOUS
10
74.8706899
20
-43.6586696
11
75.8333292
21
-57.4250535
0
LINE
8
0
6
CONTINUOUS
10
74.6474691
20
-40.4664646
11
88.413853
21
-39.5038253
0
LINE
8
0
6
CONTINUOUS
10
88.413853
20
-39.5038253
11
87.4512137
21
-25.7374414
0
LINE
8
0
6
CONTINUOUS
10
87.4512137
20
-25.7374414
11
73.6848298
21
-26.7000807
0
LINE
8
0
6
CONTINUOUS
10
73.6848298
20
-26.7000807
11
74.6474691
21
-40.4664646
0
LINE
8
0
6
CONTINUOUS
10
95.8653916
20
-85.3475777
11
109.6653916
21
-85.3475777
0
LINE
8
0
6
CONTINUOUS
10
109.6653916
20
-85.3475777
11
109.6653916
21
-71.5475777
0
LINE
8
0
6
CONTINUOUS
10
109.6653916
20
-71.5475777
11
95.8653916
21
-71.5475777
0
LINE
8
0
6
CONTINUOUS
10
95.8653916
20
-71.5475777
11
95.8653916
21
-85.3475777
0
LINE
8
0
6
CONTINUOUS
10
95.8653916
20
-68.3475777
11
109.6653916
21
-68.3475777
0
LINE
8
0
6
CONTINUOUS
10
109.6653916
20
-68.3475777
11
109.6653916
21
-54.5475777
0
LINE
8
0
6
CONTINUOUS
10
109.6653916
20
-54.5475777
11
95.8653916
21
-54.5475777
0
LINE
8
0
6
CONTINUOUS
10
95.8653916
20
-54.5475777
11
95.8653916
21
-68.3475777
0
LINE
8
0
6
CONTINUOUS
10
95.8653916
20
-51.3475777
11
109.6653916
21
-51.3475777
0
LINE
8
0
6
CONTINUOUS
10
109.6653916
20
-51.3475777
11
109.6653916
21
-37.5475777
0
LINE
8
0
6
CONTINUOUS
10
109.6653916
20
-37.5475777
11
95.8653916
21
-37.5475777
0
LINE
8
0
6
CONTINUOUS
10
95.8653916
20
-37.5475777
11
95.8653916
21
-51.3475777
0
LINE
8
0
6
CONTINUOUS
10
95.8653916
20
-34.3475777
11
109.6653916
21
-34.3475777
0
LINE
8
0
6
CONTINUOUS
10
109.6653916
20
-34.3475777
11
109.6653916
21
-20.5475777
0
LINE
8
0
6
CONTINUOUS
10
109.6653916
20
-20.5475777
11
95.8653916
21
-20.5475777
0
LINE
8
0
6
CONTINUOUS
10
95.8653916
20
-20.5475777
11
95.8653916
21
-34.3475777
0
LINE
8
0
6
CONTINUOUS
10
113.8653917
20
-88.7475777
11
127.6653917
21
-88.7475777
0
LINE
8
0
6
CONTINUOUS
10
127.6653917
20
-88.7475777
11
127.6653917
21
-74.9475777
0
LINE
8
0
6
CONTINUOUS
10
127.6653917
20
-74.9475777
11
113.8653917
21
-74.9475777
0
LINE
8
0
6
CONTINUOUS
10
113.8653917
20
-74.9475777
11
113.8653917
21
-88.7475777
0
LINE
8
0
6
CONTINUOUS
10
113.8653917
20
-71.7475777
11
127.6653917
21
-71.7475777
0
LINE
8
0
6
CONTINUOUS
10
127.6653917
20
-71.7475777
11
127.6653917
21
-57.9475777
0
LINE
8
0
6
CONTINUOUS
10
127.6653917
20
-57.9475777
11
113.8653917
21
-57.9475777
0
LINE
8
0
6
CONTINUOUS
10
113.8653917
20
-57.9475777
11
113.8653917
21
-71.7475777
0
LINE
8
0
6
CONTINUOUS
10
113.8653917
20
-54.7475777
11
127.6653917
21
-54.7475777
0
LINE
8
0
6
CONTINUOUS
10
127.6653917
20
-54.7475777
11
127.6653917
21
-40.9475777
0
LINE
8
0
6
CONTINUOUS
10
127.6653917
20
-40.9475777
11
113.8653917
21
-40.9475777
0
LINE
8
0
6
CONTINUOUS
10
113.8653917
20
-40.9475777
11
113.8653917
21
-54.7475777
0
LINE
8
0
6
CONTINUOUS
10
113.8653917
20
-37.7475777
11
127.6653917
21
-37.7475777
0
LINE
8
0
6
CONTINUOUS
10
127.6653917
20
-37.7475777
11
127.6653917
21
-23.9475777
0
LINE
8
0
6
CONTINUOUS
10
127.6653917
20
-23.9475777
11
113.8653917
21
-23.9475777
0
LINE
8
0
6
CONTINUOUS
10
113.8653917
20
-23.9475777
11
113.8653917
21
-37.7475777
0
LINE
8
0
6
CONTINUOUS
10
131.8653917
20
-91.2975778
11
145.6653917
21
-91.2975778
0
LINE
8
0
6
CONTINUOUS
10
145.6653917
20
-91.2975778
11
145.6653917
21
-77.4975778
0
LINE
8
0
6
CONTINUOUS
10
145.6653917
20
-77.4975778
11
131.8653917
21
-77.4975778
0
LINE
8
0
6
CONTINUOUS
10
131.8653917
20
-77.4975778
11
131.8653917
21
-91.2975778
0
LINE
8
0
6
CONTINUOUS
10
131.8653917
20
-74.2975778
11
145.6653917
21
-74.2975778
0
LINE
8
0
6
CONTINUOUS
10
145.6653917
20
-74.2975778
11
145.6653917
21
-60.4975778
0
LINE
8
0
6
CONTINUOUS
10
145.6653917
20
-60.4975778
11
131.8653917
21
-60.4975778
0
LINE
8
0
6
CONTINUOUS
10
131.8653917
20
-60.4975778
11
131.8653917
21
-74.2975778
0
LINE
8
0
6
CONTINUOUS
10
131.8653917
20
-57.2975778
11
145.6653917
21
-57.2975778
0
LINE
8
0
6
CONTINUOUS
10
145.6653917
20
-57.2975778
11
145.6653917
21
-43.4975778
0
LINE
8
0
6
CONTINUOUS
10
145.6653917
20
-43.4975778
11
131.8653917
21
-43.4975778
0
LINE
8
0
6
CONTINUOUS
10
131.8653917
20
-43.4975778
11
131.8653917
21
-57.2975778
0
LINE
8
0
6
CONTINUOUS
10
131.8653917
20
-40.2975778
11
145.6653917
21
-40.2975778
0
LINE
8
0
6
CONTINUOUS
10
145.6653917
20
-40.2975778
11
145.6653917
21
-26.4975778
0
LINE
8
0
6
CONTINUOUS
10
145.6653917
20
-26.4975778
11
131.8653917
21
-26.4975778
0
LINE
8
0
6
CONTINUOUS
10
131.8653917
20
-26.4975778
11
131.8653917
21
-40.2975778
0
LINE
8
0
6
CONTINUOUS
10
121.0653917
20
-109.9975777
11
134.8653917
21
-109.9975777
0
LINE
8
0
6
CONTINUOUS
10
134.8653917
20
-109.9975777
11
134.8653917
21
-96.1975777
0
LINE
8
0
6
CONTINUOUS
10
134.8653917
20
-96.1975777
11
121.0653917
21
-96.1975777
0
LINE
8
0
6
CONTINUOUS
10
121.0653917
20
-96.1975777
11
121.0653917
21
-109.9975777
0
LINE
8
0
6
CONTINUOUS
10
139.4079464
20
-110.5956164
11
152.7377228
21
-114.1673192
0
LINE
8
0
6
CONTINUOUS
10
152.7377228
20
-114.1673192
11
156.3094256
21
-100.8375428
0
LINE
8
0
6
CONTINUOUS
10
156.3094256
20
-100.8375428
11
142.9796492
21
-97.26584
0
LINE
8
0
6
CONTINUOUS
10
142.9796492
20
-97.26584
11
139.4079464
21
-110.5956164
0
LINE
8
0
6
CONTINUOUS
10
156.9707099
20
-115.9206799
11
168.9218605
21
-122.8206799
0
LINE
8
0
6
CONTINUOUS
10
168.9218605
20
-122.8206799
11
175.8218605
21
-110.8695293
0
LINE
8
0
6
CONTINUOUS
10
175.8218605
20
-110.8695293
11
163.8707099
21
-103.9695293
0
LINE
8
0
6
CONTINUOUS
10
163.8707099
20
-103.9695293
11
156.9707099
21
-115.9206799
0
ENDSEC
0
EOF