0
SECTION
2
HEADER
9
$INSUNITS
70
4
0
ENDSEC
0
SECTION
2
TABLES
0
TABLE
2
LTYPE
0
LTYPE
72
65
70
0
2
CONTINUOUS
3
______
73
0
40
0
0
LTYPE
72
65
70
0
2
DASHED
3
_ _ _ 
73
2
40
7.5
49
5
49
-2.5
0
LTYPE
72
65
70
0
2
DOTTED
3
. . . 
73
2
40
1.5
49
0.5
49
-1
0
ENDTAB
0
TABLE
2
LAYER
0
ENDTAB
0
ENDSEC
0
SECTION
2
ENTITIES
0
LINE
8
0
6
CONTINUOUS
10
37.6778465
20
-76.9909902
11
53.5221355
21
-74.7642205
0
LINE
8
0
6
CONTINUOUS
10
50.8778466
20
-55.9491272
11
35.0335576
21
-58.1758969
0
LINE
8
0
6
CONTINUOUS
10
34.1824626
20
-59.3053381
11
36.5484053
21
-76.1398952
0
LINE
8
0
6
CONTINUOUS
10
59.5247743
20
-103.1046216
11
77.3495994
21
-100.5995057
0
LINE
8
0
6
CONTINUOUS
10
78.2006944
20
-99.4700645
11
77.5815396
21
-95.064549
0
LINE
8
0
6
CONTINUOUS
10
54.6515767
20
-75.6153155
11
58.3953331
21
-102.2535266
0
LINE
8
0
6
CONTINUOUS
10
68.7369236
20
-32.1318358
11
73.1556406
21
-63.5726411
0
LINE
8
0
6
CONTINUOUS
10
48.9315623
20
-34.9152979
11
51.7289416
21
-54.819686
0
LINE
8
0
6
CONTINUOUS
10
67.6074824
20
-31.2807408
11
49.7826573
21
-33.7858567
0
LINE
8
0
6
CONTINUOUS
10
78.5020512
20
-93.9278118
11
94.2476846
21
-92.8267699
0
LINE
8
0
6
CONTINUOUS
10
95.1754922
20
-91.7594493
11
94.9837448
21
-89.0173342
0
LINE
8
0
6
CONTINUOUS
10
90.4320519
20
-23.9250939
11
90.7678275
21
-28.7269088
0
LINE
8
0
6
CONTINUOUS
10
72.7827346
20
-58.2398371
11
72.9222475
21
-60.2349651
0
LINE
8
0
6
CONTINUOUS
10
72.9222475
20
-60.2349651
11
73.1556406
21
-63.5726411
0
LINE
8
0
6
CONTINUOUS
10
70.4807709
20
-25.3202234
11
71.7363874
21
-43.2763762
0
LINE
8
0
6
CONTINUOUS
10
71.7363874
20
-43.2763762
11
72.7827346
21
-58.2398371
0
LINE
8
0
6
CONTINUOUS
10
89.3647313
20
-22.9972863
11
71.4085785
21
-24.2529028
0
LINE
8
0
6
CONTINUOUS
10
95.9813089
20
-87.9475777
11
109.7653917
21
-87.9475777
0
LINE
8
0
6
CONTINUOUS
10
92.7653916
20
-28.6571523
11
92.7653916
21
-18.9475777
0
LINE
8
0
6
CONTINUOUS
10
112.7653916
20
-20.3475777
11
112.7653916
21
-18.9475777
0
LINE
8
0
6
CONTINUOUS
10
111.7653916
20
-17.9475777
11
93.7653916
21
-17.9475777
0
LINE
8
0
6
CONTINUOUS
10
111.7653917
20
-91.3475777
11
116.9653917
21
-91.3475777
0
LINE
8
0
6
CONTINUOUS
10
110.7653917
20
-88.9475777
11
110.7653917
21
-90.3475777
0
LINE
8
0
6
CONTINUOUS
10
130.7653917
20
-22.8975778
11
130.7653917
21
-22.3475777
0
LINE
8
0
6
CONTINUOUS
10
129.7653917
20
-21.3475777
11
113.7653916
21
-21.3475777
0
LINE
8
0
6
CONTINUOUS
10
147.7653917
20
-93.8975778
11
148.7653917
21
-93.8975778
0
LINE
8
0
6
CONTINUOUS
10
148.7653917
20
-93.8975778
11
148.7653917
21
-24.8975778
0
LINE
8
0
6
CONTINUOUS
10
147.7653917
20
-23.8975778
11
131.7653917
21
-23.8975778
0
LINE
8
0
6
CONTINUOUS
10
118.9653917
20
-112.5975777
11
136.7020867
21
-112.5975777
0
LINE
8
0
6
CONTINUOUS
10
117.9653917
20
-111.5975777
11
117.9653917
21
-92.3475777
0
LINE
8
0
6
CONTINUOUS
10
136.9609057
20
-112.6316519
11
153.3269721
21
-117.0169262
0
LINE
8
0
6
CONTINUOUS
10
170.8029894
20
-125.762469
11
179.3065392
21
-111.0338887
0
LINE
8
0
6
CONTINUOUS
10
178.9405138
20
-109.6678633
11
162.5384558
21
-100.1981307
0
LINE
8
0
6
CONTINUOUS
10
147.7653917
20
-93.8975778
11
162.4303382
21
-100.1441408
0
LINE
8
0
6
CONTINUOUS
10
169.443147
20
-126.1320348
11
153.5619701
21
-117.1132862
0
LINE
8
0
6
CONTINUOUS
10
40.3858274
20
-73.9848566
11
52.0709906
21
-72.342614
0
LINE
8
0
6
CONTINUOUS
10
52.9220856
20
-71.2131728
11
51.279843
21
-59.5280096
0
LINE
8
0
6
CONTINUOUS
10
50.1504018
20
-58.6769146
11
38.4652386
21
-60.3191572
0
LINE
8
0
6
CONTINUOUS
10
37.6141436
20
-61.4485984
11
39.2563862
21
-73.1337616
0
LINE
8
0
6
CONTINUOUS
10
62.2327552
20
-100.098488
11
73.9179184
21
-98.4562454
0
LINE
8
0
6
CONTINUOUS
10
74.7690134
20
-97.3268042
11
73.1267708
21
-85.641641
0
LINE
8
0
6
CONTINUOUS
10
71.9973296
20
-84.790546
11
60.3121664
21
-86.4327886
0
LINE
8
0
6
CONTINUOUS
10
59.4610714
20
-87.5622298
11
61.103314
21
-99.247393
0
LINE
8
0
6
CONTINUOUS
10
59.8668125
20
-83.2639308
11
71.5519757
21
-81.6216882
0
LINE
8
0
6
CONTINUOUS
10
72.4030707
20
-80.492247
11
70.7608281
21
-68.8070838
0
LINE
8
0
6
CONTINUOUS
10
69.6313869
20
-67.9559888
11
57.9462237
21
-69.5982314
0
LINE
8
0
6
CONTINUOUS
10
57.0951287
20
-70.7276726
11
58.7373713
21
-82.4128358
0
LINE
8
0
6
CONTINUOUS
10
57.5008698
20
-66.4293736
11
69.186033
21
-64.787131
0
LINE
8
0
6
CONTINUOUS
10
70.037128
20
-63.6576898
11
68.3948854
21
-51.9725266
0
LINE
8
0
6
CONTINUOUS
10
67.2654442
20
-51.1214316
11
55.580281
21
-52.7636742
0
LINE
8
0
6
CONTINUOUS
10
54.729186
20
-53.8931154
11
56.3714286
21
-65.5782786
0
LINE
8
0
6
CONTINUOUS
10
55.1349271
20
-49.5948164
11
66.8200903
21
-47.9525738
0
LINE
8
0
6
CONTINUOUS
10
67.6711853
20
-46.8231326
11
66.0289427
21
-35.1379694
0
LINE
8
0
6
CONTINUOUS
10
64.8995015
20
-34.2868744
11
53.2143383
21
-35.929117
0
LINE
8
0
6
CONTINUOUS
10
52.3632433
20
-37.0585582
11
54.0054859
21
-48.7437214
0
LINE
8
0
6
CONTINUOUS
10
79.2026135
20
-91.2724748
11
90.9738692
21
-90.4493485
0
LINE
8
0
6
CONTINUOUS
10
91.9016768
20
-89.3820279
11
91.0785505
21
-77.6107722
0
LINE
8
0
6
CONTINUOUS
10
90.0112299
20
-76.6829646
11
78.2399742
21
-77.5060909
0
LINE
8
0
6
CONTINUOUS
10
77.3121666
20
-78.5734115
11
78.1352929
21
-90.3446672
0
LINE
8
0
6
CONTINUOUS
10
78.0167534
20
-74.3138859
11
89.7880091
21
-73.4907596
0
LINE
8
0
6
CONTINUOUS
10
90.7158167
20
-72.423439
11
89.8926904
21
-60.6521833
0
LINE
8
0
6
CONTINUOUS
10
88.8253698
20
-59.7243757
11
77.0541141
21
-60.547502
0
LINE
8
0
6
CONTINUOUS
10
76.1263065
20
-61.6148226
11
76.9494328
21
-73.3860783
0
LINE
8
0
6
CONTINUOUS
10
76.8308933
20
-57.355297
11
88.602149
21
-56.5321707
0
LINE
8
0
6
CONTINUOUS
10
89.5299566
20
-55.4648501
11
88.7068303
21
-43.6935944
0
LINE
8
0
6
CONTINUOUS
10
87.6395097
20
-42.7657868
11
75.868254
21
-43.5889131
0
LINE
8
0
6
CONTINUOUS
10
74.9404464
20
-44.6562337
11
75.7635727
21
-56.4274894
0
LINE
8
0
6
CONTINUOUS
10
75.6450332
20
-40.3967081
11
87.4162889
21
-39.5735818
0
LINE
8
0
6
CONTINUOUS
10
88.3440965
20
-38.5062612
11
87.5209702
21
-26.7350055
0
LINE
8
0
6
CONTINUOUS
10
86.4536496
20
-25.8071979
11
74.6823939
21
-26.6303242
0
LINE
8
0
6
CONTINUOUS
10
73.7545863
20
-27.6976448
11
74.5777126
21
-39.4689005
0
LINE
8
0
6
CONTINUOUS
10
96.8653916
20
-85.3475777
11
108.6653916
21
-85.3475777
0
LINE
8
0
6
CONTINUOUS
10
109.6653916
20
-84.3475777
11
109.6653916
21
-72.5475777
0
LINE
8
0
6
CONTINUOUS
10
108.6653916
20
-71.5475777
11
96.8653916
21
-71.5475777
0
LINE
8
0
6
CONTINUOUS
10
95.8653916
20
-72.5475777
11
95.8653916
21
-84.3475777
0
LINE
8
0
6
CONTINUOUS
10
96.8653916
20
-68.3475777
11
108.6653916
21
-68.3475777
0
LINE
8
0
6
CONTINUOUS
10
109.6653916
20
-67.3475777
11
109.6653916
21
-55.5475777
0
LINE
8
0
6
CONTINUOUS
10
108.6653916
20
-54.5475777
11
96.8653916
21
-54.5475777
0
LINE
8
0
6
CONTINUOUS
10
95.8653916
20
-55.5475777
11
95.8653916
21
-67.3475777
0
LINE
8
0
6
CONTINUOUS
10
96.8653916
20
-51.3475777
11
108.6653916
21
-51.3475777
0
LINE
8
0
6
CONTINUOUS
10
109.6653916
20
-50.3475777
11
109.6653916
21
-38.5475777
0
LINE
8
0
6
CONTINUOUS
10
108.6653916
20
-37.5475777
11
96.8653916
21
-37.5475777
0
LINE
8
0
6
CONTINUOUS
10
95.8653916
20
-38.5475777
11
95.8653916
21
-50.3475777
0
LINE
8
0
6
CONTINUOUS
10
96.8653916
20
-34.3475777
11
108.6653916
21
-34.3475777
0
LINE
8
0
6
CONTINUOUS
10
109.6653916
20
-33.3475777
11
109.6653916
21
-21.5475777
0
LINE
8
0
6
CONTINUOUS
10
108.6653916
20
-20.5475777
11
96.8653916
21
-20.5475777
0
LINE
8
0
6
CONTINUOUS
10
95.8653916
20
-21.5475777
11
95.8653916
21
-33.3475777
0
LINE
8
0
6
CONTINUOUS
10
114.8653917
20
-88.7475777
11
126.6653917
21
-88.7475777
0
LINE
8
0
6
CONTINUOUS
10
127.6653917
20
-87.7475777
11
127.6653917
21
-75.9475777
0
LINE
8
0
6
CONTINUOUS
10
126.6653917
20
-74.9475777
11
114.8653917
21
-74.9475777
0
LINE
8
0
6
CONTINUOUS
10
113.8653917
20
-75.9475777
11
113.8653917
21
-87.7475777
0
LINE
8
0
6
CONTINUOUS
10
114.8653917
20
-71.7475777
11
126.6653917
21
-71.7475777
0
LINE
8
0
6
CONTINUOUS
10
127.6653917
20
-70.7475777
11
127.6653917
21
-58.9475777
0
LINE
8
0
6
CONTINUOUS
10
126.6653917
20
-57.9475777
11
114.8653917
21
-57.9475777
0
LINE
8
0
6
CONTINUOUS
10
113.8653917
20
-58.9475777
11
113.8653917
21
-70.7475777
0
LINE
8
0
6
CONTINUOUS
10
114.8653917
20
-54.7475777
11
126.6653917
21
-54.7475777
0
LINE
8
0
6
CONTINUOUS
10
127.6653917
20
-53.7475777
11
127.6653917
21
-41.9475777
0
LINE
8
0
6
CONTINUOUS
10
126.6653917
20
-40.9475777
11
114.8653917
21
-40.9475777
0
LINE
8
0
6
CONTINUOUS
10
113.8653917
20
-41.9475777
11
113.8653917
21
-53.7475777
0
LINE
8
0
6
CONTINUOUS
10
114.8653917
20
-37.7475777
11
126.6653917
21
-37.7475777
0
LINE
8
0
6
CONTINUOUS
10
127.6653917
20
-36.7475777
11
127.6653917
21
-24.9475777
0
LINE
8
0
6
CONTINUOUS
10
126.6653917
20
-23.9475777
11
114.8653917
21
-23.9475777
0
LINE
8
0
6
CONTINUOUS
10
113.8653917
20
-24.9475777
11
113.8653917
21
-36.7475777
0
LINE
8
0
6
CONTINUOUS
10
132.8653917
20
-91.2975778
11
144.6653917
21
-91.2975778
0
LINE
8
0
6
CONTINUOUS
10
145.6653917
20
-90.2975778
11
145.6653917
21
-78.4975778
0
LINE
8
0
6
CONTINUOUS
10
144.6653917
20
-77.4975778
11
132.8653917
21
-77.4975778
0
LINE
8
0
6
CONTINUOUS
10
131.8653917
20
-78.4975778
11
131.8653917
21
-90.2975778
0
LINE
8
0
6
CONTINUOUS
10
132.8653917
20
-74.2975778
11
144.6653917
21
-74.2975778
0
LINE
8
0
6
CONTINUOUS
10
145.6653917
20
-73.2975778
11
145.6653917
21
-61.4975778
0
LINE
8
0
6
CONTINUOUS
10
144.6653917
20
-60.4975778
11
132.8653917
21
-60.4975778
0
LINE
8
0
6
CONTINUOUS
10
131.8653917
20
-61.4975778
11
131.8653917
21
-73.2975778
0
LINE
8
0
6
CONTINUOUS
10
132.8653917
20
-57.2975778
11
144.6653917
21
-57.2975778
0
LINE
8
0
6
CONTINUOUS
10
145.6653917
20
-56.2975778
11
145.6653917
21
-44.4975778
0
LINE
8
0
6
CONTINUOUS
10
144.6653917
20
-43.4975778
11
132.8653917
21
-43.4975778
0
LINE
8
0
6
CONTINUOUS
10
131.8653917
20
-44.4975778
11
131.8653917
21
-56.2975778
0
LINE
8
0
6
CONTINUOUS
10
132.8653917
20
-40.2975778
11
144.6653917
21
-40.2975778
0
LINE
8
0
6
CONTINUOUS
10
145.6653917
20
-39.2975778
11
145.6653917
21
-27.4975778
0
LINE
8
0
6
CONTINUOUS
10
144.6653917
20
-26.4975778
11
132.8653917
21
-26.4975778
0
LINE
8
0
6
CONTINUOUS
10
131.8653917
20
-27.4975778
11
131.8653917
21
-39.2975778
0
LINE
8
0
6
CONTINUOUS
10
122.0653917
20
-109.9975777
11
133.8653917
21
-109.9975777
0
LINE
8
0
6
CONTINUOUS
10
134.8653917
20
-108.9975777
11
134.8653917
21
-97.1975777
0
LINE
8
0
6
CONTINUOUS
10
133.8653917
20
-96.1975777
11
122.0653917
21
-96.1975777
0
LINE
8
0
6
CONTINUOUS
10
121.0653917
20
-97.1975777
11
121.0653917
21
-108.9975777
0
LINE
8
0
6
CONTINUOUS
10
140.3738722
20
-110.8544354
11
151.771797
21
-113.9085002
0
LINE
8
0
6
CONTINUOUS
10
152.9965418
20
-113.2013934
11
156.0506066
21
-101.8034686
0
LINE
8
0
6
CONTINUOUS
10
155.3434998
20
-100.5787238
11
143.945575
21
-97.524659
0
LINE
8
0
6
CONTINUOUS
10
142.7208302
20
-98.2317658
11
139.6667654
21
-109.6296906
0
LINE
8
0
6
CONTINUOUS
10
157.8367353
20
-116.4206799
11
168.0558351
21
-122.3206799
0
LINE
8
0
6
CONTINUOUS
10
169.4218605
20
-121.9546545
11
175.3218605
21
-111.7355547
0
LINE
8
0
6
CONTINUOUS
10
174.9558351
20
-110.3695293
11
164.7367353
21
-104.4695293
0
LINE
8
0
6
CONTINUOUS
10
163.3707099
20
-104.8355547
11
157.4707099
21
-115.0546545
0
ARC
8
0
6
CONTINUOUS
10
53.6613086
20
-75.7544886
40
1
50
7.9999997
51
97.9999997
0
ARC
8
0
6
CONTINUOUS
10
59.3856012
20
-102.1143535
40
1
50
187.9999997
51
277.9999997
0
ARC
8
0
6
CONTINUOUS
10
77.2104263
20
-99.6092376
40
1
50
277.9999997
51
7.9999997
0
ARC
8
0
6
CONTINUOUS
10
78.5718077
20
-94.9253759
40
1
50
94.0000013
51
187.9999997
0
ARC
8
0
6
CONTINUOUS
10
94.1779281
20
-91.8292058
40
1
50
274.0000013
51
4.0000013
0
ARC
8
0
6
CONTINUOUS
10
95.9813089
20
-88.9475777
40
1
50
90
51
184.0000013
0
ARC
8
0
6
CONTINUOUS
10
109.7653917
20
-88.9475777
40
1
50
0
51
90
0
ARC
8
0
6
CONTINUOUS
10
111.7653917
20
-90.3475777
40
1
50
180
51
270
0
ARC
8
0
6
CONTINUOUS
10
116.9653917
20
-92.3475777
40
1
50
0
51
90
0
ARC
8
0
6
CONTINUOUS
10
118.9653917
20
-111.5975777
40
1
50
180
51
270
0
ARC
8
0
6
CONTINUOUS
10
136.7020867
20
-113.5975777
40
1
50
75.0000021
51
90
0
ARC
8
0
6
CONTINUOUS
10
153.0681531
20
-117.982852
40
1
50
60.4082263
51
75.0000021
0
ARC
8
0
6
CONTINUOUS
10
169.936964
20
-125.262469
40
1
50
240.4082263
51
329.9999999
0
ARC
8
0
6
CONTINUOUS
10
178.4405138
20
-110.5338887
40
1
50
329.9999999
51
59.9999999
0
ARC
8
0
6
CONTINUOUS
10
162.0384558
20
-101.0641561
40
1
50
59.9999999
51
66.928321
0
ARC
8
0
6
CONTINUOUS
10
147.7653917
20
-24.8975778
40
1
50
0
51
90
0
ARC
8
0
6
CONTINUOUS
10
131.7653917
20
-22.8975778
40
1
50
180
51
270
0
ARC
8
0
6
CONTINUOUS
10
129.7653917
20
-22.3475777
40
1
50
0
51
90
0
ARC
8
0
6
CONTINUOUS
10
113.7653916
20
-20.3475777
40
1
50
180
51
270
0
ARC
8
0
6
CONTINUOUS
10
111.7653916
20
-18.9475777
40
1
50
0
51
90
0
ARC
8
0
6
CONTINUOUS
10
93.7653916
20
-18.9475777
40
1
50
90
51
180
0
ARC
8
0
6
CONTINUOUS
10
91.7653916
20
-28.6571523
40
1
50
184.0000013
51
0
0
ARC
8
0
6
CONTINUOUS
10
89.4344878
20
-23.9948504
40
1
50
4.0000013
51
94.0000013
0
ARC
8
0
6
CONTINUOUS
10
71.478335
20
-25.2504669
40
1
50
94.0000013
51
184.0000013
0
ARC
8
0
6
CONTINUOUS
10
67.7466555
20
-32.2710089
40
1
50
7.9999997
51
97.9999997
0
ARC
8
0
6
CONTINUOUS
10
49.9218304
20
-34.7761248
40
1
50
97.9999997
51
187.9999997
0
ARC
8
0
6
CONTINUOUS
10
50.7386735
20
-54.9588591
40
1
50
277.9999997
51
7.9999997
0
ARC
8
0
6
CONTINUOUS
10
35.1727307
20
-59.166165
40
1
50
97.9999997
51
187.9999997
0
ARC
8
0
6
CONTINUOUS
10
37.5386734
20
-76.0007221
40
1
50
187.9999997
51
277.9999997
0
ARC
8
0
6
CONTINUOUS
10
66.6809172
20
-46.9623057
40
1
50
277.9999997
51
7.9999997
0
ARC
8
0
6
CONTINUOUS
10
65.0386746
20
-35.2771425
40
1
50
7.9999997
51
97.9999997
0
ARC
8
0
6
CONTINUOUS
10
53.3535114
20
-36.9193851
40
1
50
97.9999997
51
187.9999997
0
ARC
8
0
6
CONTINUOUS
10
54.995754
20
-48.6045483
40
1
50
187.9999997
51
277.9999997
0
ARC
8
0
6
CONTINUOUS
10
73.7787453
20
-97.4659773
40
1
50
277.9999997
51
7.9999997
0
ARC
8
0
6
CONTINUOUS
10
72.1365027
20
-85.7808141
40
1
50
7.9999997
51
97.9999997
0
ARC
8
0
6
CONTINUOUS
10
60.4513395
20
-87.4230567
40
1
50
97.9999997
51
187.9999997
0
ARC
8
0
6
CONTINUOUS
10
62.0935821
20
-99.1082199
40
1
50
187.9999997
51
277.9999997
0
ARC
8
0
6
CONTINUOUS
10
51.9318175
20
-71.3523459
40
1
50
277.9999997
51
7.9999997
0
ARC
8
0
6
CONTINUOUS
10
50.2895749
20
-59.6671827
40
1
50
7.9999997
51
97.9999997
0
ARC
8
0
6
CONTINUOUS
10
38.6044117
20
-61.3094253
40
1
50
97.9999997
51
187.9999997
0
ARC
8
0
6
CONTINUOUS
10
40.2466543
20
-72.9945885
40
1
50
187.9999997
51
277.9999997
0
ARC
8
0
6
CONTINUOUS
10
71.4128026
20
-80.6314201
40
1
50
277.9999997
51
7.9999997
0
ARC
8
0
6
CONTINUOUS
10
69.77056
20
-68.9462569
40
1
50
7.9999997
51
97.9999997
0
ARC
8
0
6
CONTINUOUS
10
58.0853968
20
-70.5884995
40
1
50
97.9999997
51
187.9999997
0
ARC
8
0
6
CONTINUOUS
10
59.7276394
20
-82.2736627
40
1
50
187.9999997
51
277.9999997
0
ARC
8
0
6
CONTINUOUS
10
69.0468599
20
-63.7968629
40
1
50
277.9999997
51
7.9999997
0
ARC
8
0
6
CONTINUOUS
10
67.4046173
20
-52.1116997
40
1
50
7.9999997
51
97.9999997
0
ARC
8
0
6
CONTINUOUS
10
55.7194541
20
-53.7539423
40
1
50
97.9999997
51
187.9999997
0
ARC
8
0
6
CONTINUOUS
10
57.3616967
20
-65.4391055
40
1
50
187.9999997
51
277.9999997
0
ARC
8
0
6
CONTINUOUS
10
168.5558351
20
-121.4546545
40
1
50
239.9999999
51
329.9999999
0
ARC
8
0
6
CONTINUOUS
10
174.4558351
20
-111.2355547
40
1
50
329.9999999
51
59.9999999
0
ARC
8
0
6
CONTINUOUS
10
164.2367353
20
-105.3355547
40
1
50
59.9999999
51
149.9999999
0
ARC
8
0
6
CONTINUOUS
10
158.3367353
20
-115.5546545
40
1
50
149.9999999
51
239.9999999
0
ARC
8
0
6
CONTINUOUS
10
90.9041127
20
-89.4517844
40
1
50
274.0000013
51
4.0000013
0
ARC
8
0
6
CONTINUOUS
10
90.0809864
20
-77.6805287
40
1
50
4.0000013
51
94.0000013
0
ARC
8
0
6
CONTINUOUS
10
78.3097307
20
-78.503655
40
1
50
94.0000013
51
184.0000013
0
ARC
8
0
6
CONTINUOUS
10
79.132857
20
-90.2749107
40
1
50
184.0000013
51
274.0000013
0
ARC
8
0
6
CONTINUOUS
10
89.7182526
20
-72.4931955
40
1
50
274.0000013
51
4.0000013
0
ARC
8
0
6
CONTINUOUS
10
88.8951263
20
-60.7219398
40
1
50
4.0000013
51
94.0000013
0
ARC
8
0
6
CONTINUOUS
10
77.1238706
20
-61.5450661
40
1
50
94.0000013
51
184.0000013
0
ARC
8
0
6
CONTINUOUS
10
77.9469969
20
-73.3163218
40
1
50
184.0000013
51
274.0000013
0
ARC
8
0
6
CONTINUOUS
10
88.5323925
20
-55.5346066
40
1
50
274.0000013
51
4.0000013
0
ARC
8
0
6
CONTINUOUS
10
87.7092662
20
-43.7633509
40
1
50
4.0000013
51
94.0000013
0
ARC
8
0
6
CONTINUOUS
10
75.9380105
20
-44.5864772
40
1
50
94.0000013
51
184.0000013
0
ARC
8
0
6
CONTINUOUS
10
76.7611368
20
-56.3577329
40
1
50
184.0000013
51
274.0000013
0
ARC
8
0
6
CONTINUOUS
10
87.3465324
20
-38.5760177
40
1
50
274.0000013
51
4.0000013
0
ARC
8
0
6
CONTINUOUS
10
86.5234061
20
-26.804762
40
1
50
4.0000013
51
94.0000013
0
ARC
8
0
6
CONTINUOUS
10
74.7521504
20
-27.6278883
40
1
50
94.0000013
51
184.0000013
0
ARC
8
0
6
CONTINUOUS
10
75.5752767
20
-39.399144
40
1
50
184.0000013
51
274.0000013
0
ARC
8
0
6
CONTINUOUS
10
144.6653917
20
-56.2975778
40
1
50
270
51
0
0
ARC
8
0
6
CONTINUOUS
10
144.6653917
20
-44.4975778
40
1
50
0
51
90
0
ARC
8
0
6
CONTINUOUS
10
132.8653917
20
-44.4975778
40
1
50
90
51
180
0
ARC
8
0
6
CONTINUOUS
10
132.8653917
20
-56.2975778
40
1
50
180
51
270
0
ARC
8
0
6
CONTINUOUS
10
144.6653917
20
-90.2975778
40
1
50
270
51
0
0
ARC
8
0
6
CONTINUOUS
10
144.6653917
20
-78.4975778
40
1
50
0
51
90
0
ARC
8
0
6
CONTINUOUS
10
132.8653917
20
-78.4975778
40
1
50
90
51
180
0
ARC
8
0
6
CONTINUOUS
10
132.8653917
20
-90.2975778
40
1
50
180
51
270
0
ARC
8
0
6
CONTINUOUS
10
144.6653917
20
-73.2975778
40
1
50
270
51
0
0
ARC
8
0
6
CONTINUOUS
10
144.6653917
20
-61.4975778
40
1
50
0
51
90
0
ARC
8
0
6
CONTINUOUS
10
132.8653917
20
-61.4975778
40
1
50
90
51
180
0
ARC
8
0
6
CONTINUOUS
10
132.8653917
20
-73.2975778
40
1
50
180
51
270
0
ARC
8
0
6
CONTINUOUS
10
144.6653917
20
-39.2975778
40
1
50
270
51
0
0
ARC
8
0
6
CONTINUOUS
10
144.6653917
20
-27.4975778
40
1
50
0
51
90
0
ARC
8
0
6
CONTINUOUS
10
132.8653917
20
-27.4975778
40
1
50
90
51
180
0
ARC
8
0
6
CONTINUOUS
10
132.8653917
20
-39.2975778
40
1
50
180
51
270
0
ARC
8
0
6
CONTINUOUS
10
108.6653916
20
-50.3475777
40
1
50
270
51
0
0
ARC
8
0
6
CONTINUOUS
10
108.6653916
20
-38.5475777
40
1
50
0
51
90
0
ARC
8
0
6
CONTINUOUS
10
96.8653916
20
-38.5475777
40
1
50
90
51
180
0
ARC
8
0
6
CONTINUOUS
10
96.8653916
20
-50.3475777
40
1
50
180
51
270
0
ARC
8
0
6
CONTINUOUS
10
126.6653917
20
-53.7475777
40
1
50
270
51
0
0
ARC
8
0
6
CONTINUOUS
10
126.6653917
20
-41.9475777
40
1
50
0
51
90
0
ARC
8
0
6
CONTINUOUS
10
114.8653917
20
-41.9475777
40
1
50
90
51
180
0
ARC
8
0
6
CONTINUOUS
10
114.8653917
20
-53.7475777
40
1
50
180
51
270
0
ARC
8
0
6
CONTINUOUS
10
108.6653916
20
-84.3475777
40
1
50
270
51
0
0
ARC
8
0
6
CONTINUOUS
10
108.6653916
20
-72.5475777
40
1
50
0
51
90
0
ARC
8
0
6
CONTINUOUS
10
96.8653916
20
-72.5475777
40
1
50
90
51
180
0
ARC
8
0
6
CONTINUOUS
10
96.8653916
20
-84.3475777
40
1
50
180
51
270
0
ARC
8
0
6
CONTINUOUS
10
108.6653916
20
-67.3475777
40
1
50
270
51
0
0
ARC
8
0
6
CONTINUOUS
10
108.6653916
20
-55.5475777
40
1
50
0
51
90
0
ARC
8
0
6
CONTINUOUS
10
96.8653916
20
-55.5475777
40
1
50
90
51
180
0
ARC
8
0
6
CONTINUOUS
10
96.8653916
20
-67.3475777
40
1
50
180
51
270
0
ARC
8
0
6
CONTINUOUS
10
108.6653916
20
-33.3475777
40
1
50
270
51
0
0
ARC
8
0
6
CONTINUOUS
10
108.6653916
20
-21.5475777
40
1
50
0
51
90
0
ARC
8
0
6
CONTINUOUS
10
96.8653916
20
-21.5475777
40
1
50
90
51
180
0
ARC
8
0
6
CONTINUOUS
10
96.8653916
20
-33.3475777
40
1
50
180
51
270
0
ARC
8
0
6
CONTINUOUS
10
126.6653917
20
-87.7475777
40
1
50
270
51
0
0
ARC
8
0
6
CONTINUOUS
10
126.6653917
20
-75.9475777
40
1
50
0
51
90
0
ARC
8
0
6
CONTINUOUS
10
114.8653917
20
-75.9475777
40
1
50
90
51
180
0
ARC
8
0
6
CONTINUOUS
10
114.8653917
20
-87.7475777
40
1
50
180
51
270
0
ARC
8
0
6
CONTINUOUS
10
126.6653917
20
-70.7475777
40
1
50
270
51
0
0
ARC
8
0
6
CONTINUOUS
10
126.6653917
20
-58.9475777
40
1
50
0
51
90
0
ARC
8
0
6
CONTINUOUS
10
114.8653917
20
-58.9475777
40
1
50
90
51
180
0
ARC
8
0
6
CONTINUOUS
10
114.8653917
20
-70.7475777
40
1
50
180
51
270
0
ARC
8
0
6
CONTINUOUS
10
126.6653917
20
-36.7475777
40
1
50
270
51
0
0
ARC
8
0
6
CONTINUOUS
10
126.6653917
20
-24.9475777
40
1
50
0
51
90
0
ARC
8
0
6
CONTINUOUS
10
114.8653917
20
-24.9475777
40
1
50
90
51
180
0
ARC
8
0
6
CONTINUOUS
10
114.8653917
20
-36.7475777
40
1
50
180
51
270
0
ARC
8
0
6
CONTINUOUS
10
133.8653917
20
-108.9975777
40
1
50
270
51
0
0
ARC
8
0
6
CONTINUOUS
10
133.8653917
20
-97.1975777
40
1
50
0
51
90
0
ARC
8
0
6
CONTINUOUS
10
122.0653917
20
-97.1975777
40
1
50
90
51
180
0
ARC
8
0
6
CONTINUOUS
10
122.0653917
20
-108.9975777
40
1
50
180
51
270
0
ARC
8
0
6
CONTINUOUS
10
152.030616
20
-112.9425744
40
1
50
255.0000021
51
345.0000021
0
ARC
8
0
6
CONTINUOUS
10
155.0846808
20
-101.5446496
40
1
50
345.0000021
51
75.0000021
0
ARC
8
0
6
CONTINUOUS
10
143.686756
20
-98.4905848
40
1
50
75.0000021
51
165.0000021
0
ARC
8
0
6
CONTINUOUS
10
140.6326912
20
-109.8885096
40
1
50
165.0000021
51
255.0000021
0
ENDSEC
0
EOF